<svg xmlns="http://www.w3.org/2000/svg" stroke-width="2" viewBox="0 0 16 23"><path fill="none" d="M1.019 6.012A4.94 4.94 0 011.9 2.688 4.122 4.122 0 014.262 1.08c.806-.24 1.335.054 1.567.95a34.508 34.508 0 01.979 4.092 2.952 2.952 0 01-.783 1.952c-1.09 1.073-.863 1.854-.036 3.478a20.3 20.3 0 001.459 2.628c.827 1.208 1.265 1.855 2.328 1.308 1.181-.594 2.041-.212 2.932.747.6.693 1.269 1.288 1.873 1.98.872 1.03.833 1.74.151 2.468a3.907 3.907 0 01-4.769.885 9.707 9.707 0 01-2.325-1.88A29.953 29.953 0 011.357 8.151a10.979 10.979 0 01-.338-2.139z"/></svg>