<svg xmlns="http://www.w3.org/2000/svg" xmlns:xlink="http://www.w3.org/1999/xlink"><symbol id="icon-check-mark" viewBox="0 0 14 12"><path fill-rule="evenodd" d="M13.614.211a1 1 0 01.176 1.4l-7.775 10a1 1 0 01-1.477.112l-4.225-4a1 1 0 111.375-1.449l3.424 3.242 7.1-9.13a1 1 0 011.402-.175z"/></symbol><symbol id="icon-close-menu"><g fill="none"><path stroke="#141517" stroke-linecap="round" stroke-linejoin="round" stroke-opacity=".2" d="M1 23.721l11-11.36L23 1m0 22.721L1 1"/></g></symbol><symbol id="icon-letter"><path d="M24.227 0H1.773C.768 0 0 .765 0 1.765v16.47C0 19.235.768 20 1.773 20h22.454C25.232 20 26 19.235 26 18.235V1.765C26 .765 25.232 0 24.227 0zm0 17l-4.668-4.647a.86.86 0 00-1.24 0 .85.85 0 000 1.235l4.667 4.647H3.014l4.668-4.647a.85.85 0 000-1.235.86.86 0 00-1.241 0L1.773 17V5.706l10.636 8a.955.955 0 00.532.176.955.955 0 00.532-.176l10.754-8V17zm0-15.235V3.47l-11.286 8.352L1.773 3.471V1.765h22.454z"/></symbol><symbol id="icon-open-menu"><g fill="none"><path fill="#fff" fill-rule="evenodd" d="M.75 14h22.5v-1H.75v1zm0-6.25h22.5v-1H.75v1zM.75.5v1h22.5v-1H.75z" clip-rule="evenodd"/></g></symbol><symbol id="icon-phone" viewBox="0 0 16 23"><g stroke-width="2"><path fill="none" d="M1.019 6.012A4.94 4.94 0 011.9 2.688 4.122 4.122 0 014.262 1.08c.806-.24 1.335.054 1.567.95a34.508 34.508 0 01.979 4.092 2.952 2.952 0 01-.783 1.952c-1.09 1.073-.863 1.854-.036 3.478a20.3 20.3 0 001.459 2.628c.827 1.208 1.265 1.855 2.328 1.308 1.181-.594 2.041-.212 2.932.747.6.693 1.269 1.288 1.873 1.98.872 1.03.833 1.74.151 2.468a3.907 3.907 0 01-4.769.885 9.707 9.707 0 01-2.325-1.88A29.953 29.953 0 011.357 8.151a10.979 10.979 0 01-.338-2.139z"/></g></symbol></svg>