<svg xmlns="http://www.w3.org/2000/svg" viewBox="0 0 16 23" stroke-width="2"><path d="M1.4,6.624A4.94,4.94,0,0,1,2.281,3.3,4.122,4.122,0,0,1,4.643,1.692c.806-.24,1.335.054,1.567.95a34.508,34.508,0,0,1,.979,4.092,2.952,2.952,0,0,1-.783,1.952c-1.09,1.073-.863,1.854-.036,3.478a20.3,20.3,0,0,0,1.459,2.628C8.656,16,9.094,16.647,10.157,16.1c1.181-.594,2.041-.212,2.932.747.6.693,1.269,1.288,1.873,1.98.872,1.03.833,1.74.151,2.468a3.907,3.907,0,0,1-4.769.885A9.707,9.707,0,0,1,8.019,20.3,29.953,29.953,0,0,1,1.738,8.763,10.979,10.979,0,0,1,1.4,6.624Z" transform="translate(-0.381 -0.612)" fill="none" stroke-miterlimit="10"/></svg>
